<?xml version="1.0" encoding="UTF-8" standalone="no"?>
<svg
   xmlns:dc="http://purl.org/dc/elements/1.1/"
   xmlns:cc="http://creativecommons.org/ns#"
   xmlns:rdf="http://www.w3.org/1999/02/22-rdf-syntax-ns#"
   xmlns:svg="http://www.w3.org/2000/svg"
   xmlns="http://www.w3.org/2000/svg"
   xmlns:xlink="http://www.w3.org/1999/xlink"
   id="svg8"
   version="1.1"
   viewBox="0 0 210 210"
   height="210mm"
   width="210mm">
  <defs
     id="defs2">
    <linearGradient
       id="linearGradient2646">
      <stop
         id="stop2642"
         offset="0"
         style="stop-color:#000000;stop-opacity:1;" />
      <stop
         id="stop2644"
         offset="1"
         style="stop-color:#000000;stop-opacity:0;" />
    </linearGradient>
    <filter
       height="1.1250146"
       y="-0.062507306"
       width="1.0505594"
       x="-0.025279704"
       id="filter2638"
       style="color-interpolation-filters:sRGB">
      <feGaussianBlur
         id="feGaussianBlur2640"
         stdDeviation="0.71663439" />
    </filter>
    <radialGradient
       gradientUnits="userSpaceOnUse"
       gradientTransform="matrix(1,0,0,0.43309057,0,127.57665)"
       r="35.737776"
       fy="225.03886"
       fx="104.32143"
       cy="225.03886"
       cx="104.32143"
       id="radialGradient2648"
       xlink:href="#linearGradient2646" />
    <filter
       height="1.2305332"
       y="-0.11526659"
       width="1.1046998"
       x="-0.05234989"
       id="filter2990"
       style="color-interpolation-filters:sRGB">
      <feGaussianBlur
         id="feGaussianBlur2992"
         stdDeviation="3.6601224" />
    </filter>
  </defs>
  <metadata
     id="metadata5">
    <rdf:RDF>
      <cc:Work
         rdf:about="">
        <dc:format>image/svg+xml</dc:format>
        <dc:type
           rdf:resource="http://purl.org/dc/dcmitype/StillImage" />
        <dc:title></dc:title>
      </cc:Work>
    </rdf:RDF>
  </metadata>
  <g
     transform="translate(0,-87)"
     data-spirit-id="layer1">
    <path
       data-spirit-id="path880"
       d="m 189.74405,225.18453 c -8.07704,-4.68461 -15.3686,-10.88294 -24.52553,-13.50192 -9.71953,-3.03441 -17.55279,-10.39561 -27.65528,-12.66258 -9.76563,-1.5693 -20.18098,-1.21531 -29.76641,1.17082 -11.05128,4.44784 -21.674453,10.20579 -30.266802,18.56227 -2.641754,-0.12056 -0.894034,-10.49657 -2.178985,-14.57316 -0.335401,-8.45139 -4.726543,-16.1173 -7.703445,-23.78561 -0.387325,-5.39534 1.32503,-10.6573 2.109747,-15.96003 5.162419,-0.0742 10.448,0.62776 15.252364,-1.70271 2.678749,0.12927 4.028308,5.52781 7.127332,4.30026 4.717329,-1.32323 7.648701,-5.62994 12.585419,-6.49332 3.0998,-0.66942 5.46058,-1.74181 3.51863,-5.16047 -1.8593,-3.23585 4.96364,-4.36466 2.69129,-7.49044 -3.22624,-8.61038 -6.63929,-17.14832 -10.01274,-25.70162 -2.203829,-2.07802 -4.731558,-2.93365 -7.701882,-2.11895 -11.45111,0.96084 -22.947288,1.9292 -34.305461,3.48475 -9.516159,2.35792 -15.2694,10.58613 -17.618399,19.63977 -3.580479,11.77218 -6.231035,23.87274 -10.393041,35.46773 -3.182898,7.10749 -8.358161,13.35331 -9.411116,21.31267 -1.38047,8.39627 -3.096003,17.04055 -1.112472,25.47022 0.574757,6.29918 3.018193,12.60394 1.326009,18.89636 -1.054089,3.86218 -1.11979,7.67966 2.006054,10.69547 5.047006,6.64656 14.478447,4.9597 21.746477,7.03096 19.080851,2.56281 38.225687,5.01949 57.472461,5.88123 21.04463,-0.0653 42.25238,0.48683 63.04855,-3.43446 10.471,-1.04876 21.95197,-6.1199 26.40803,-16.20485 1.49634,-7.7296 2.90579,-16.6199 -2.6408,-23.12239 z"
       style="fill:#f2f166;stroke:#000000;stroke-width:2.4;stroke-linecap:butt;stroke-linejoin:miter;stroke-miterlimit:4;stroke-dasharray:none;stroke-opacity:1;fill-opacity:0.95999998" />
    <path
       data-spirit-id="path891"
       d="m 77.508163,137.97463 c 0.224413,-0.18248 1.694199,0.91057 3.228651,3.52827 1.602538,2.73385 2.901659,6.52017 3.416172,11.43598 -10e-7,0 0,0 0,0 -0.07655,1.0934 -0.261552,2.26512 -0.642816,3.42312 -0.288271,0.87554 -0.679559,1.71522 -1.195192,2.49559 -1.00504,1.29039 -2.230106,2.20539 -3.237436,2.94127 -8.326674,1.26566 -13.630309,-1.16536 -13.596518,-1.37359 0.09358,-0.57668 5.63681,0.47718 12.595916,-0.83903 0.80884,-0.73852 1.649188,-1.43258 2.075367,-2.21833 0.364213,-0.49695 0.638104,-1.07516 0.848936,-1.71909 0.277758,-0.84834 0.437199,-1.78542 0.552877,-2.70424 0,0 0,0 0,0 -0.443321,-4.6661 -1.26016,-7.95777 -2.351775,-10.73801 -1.004781,-2.55908 -1.949179,-4.02459 -1.694182,-4.23194 z"
       style="fill:#000000;stroke:none;stroke-width:0.26458332px;stroke-linecap:butt;stroke-linejoin:miter;stroke-opacity:1" />
    <path
       data-spirit-id="path895"
       d="m 89.268021,137.70737 c 0.308029,-0.16246 1.392086,1.07836 2.718785,3.42254 1.308216,2.31152 2.897749,5.81018 3.735388,9.86857 0.372156,1.80311 0.558544,3.53282 0.58022,5.1722 0,0 -10e-7,0 -10e-7,0 -1.363161,2.30573 -3.227011,3.71506 -4.995143,4.2684 -2.456361,0.61069 -3.893198,-0.13515 -3.900281,-0.17196 -0.06421,-0.33376 1.595653,-0.58578 3.299672,-1.49163 1.224534,-0.52843 2.316326,-1.54391 3.286829,-3.18279 0,0 0,0 0,0 -0.114249,-1.46808 -0.343752,-2.97791 -0.707608,-4.58197 -0.793303,-3.49729 -2.133499,-6.91858 -2.976464,-9.19669 -0.881744,-2.3829 -1.379563,-3.92831 -1.041397,-4.10667 z"
       style="fill:#000000;stroke:none;stroke-width:0.26458332px;stroke-linecap:butt;stroke-linejoin:miter;stroke-opacity:1" />
    <path
       data-spirit-id="path899"
       d="m 98.368301,136.92709 c 0.325959,-0.13366 1.221689,1.10934 2.376739,3.31239 1.10307,2.10391 2.64615,5.49267 3.42112,9.20274 0.30563,1.46314 0.47469,2.88072 0.5078,4.25322 0,0 0,0 0,0 -1.07278,2.45402 -2.40424,4.30333 -4.26332,5.23639 0,0 0,0 0,0 -3.067788,1.25168 -3.501472,-1.14037 -3.648741,-0.83808 0.147492,-0.30275 1.731449,0.28042 2.795232,-0.69625 -10e-7,0 0,0 0,0 1.231559,-0.7935 1.662269,-1.9919 2.710869,-4.16586 0,0 0,0 0,0 -0.0922,-1.19736 -0.28313,-2.41474 -0.57528,-3.70494 -0.66052,-2.91699 -2.077217,-6.7791 -2.66777,-8.65947 -0.720634,-2.29455 -1.005771,-3.79698 -0.656649,-3.94014 z"
       style="fill:#000000;stroke:none;stroke-width:0.26458332px;stroke-linecap:butt;stroke-linejoin:miter;stroke-opacity:1" />
    <path
       data-spirit-id="path919"
       d="m 29.860118,187.00893 c 0.259773,0.11669 -3.871281,7.57794 -4.910859,21.14535 0.847615,5.04847 1.183248,14.55245 4.312124,20.41519 0.463411,1.22846 0.558206,2.38831 0.927939,3.23354 0.347132,0.99884 1.292831,1.80304 2.309703,2.2849 -1.063816,1.92962 -1.647924,4.33283 -1.220686,6.66032 0.232779,1.79165 1.05384,3.66387 1.546416,5.85225 0.119272,1.90248 0.66948,3.84366 1.86156,5.24127 0.960401,1.24499 2.423913,2.11797 4.036487,2.81601 -0.129209,6.9e-4 17.064162,-0.0752 16.934953,-0.0746 -0.102101,0.0342 10.419436,-3.48614 10.317335,-3.45193 0.114794,-0.0411 6.212833,-2.22374 6.327627,-2.26488 2.99012,1.14851 5.974891,2.38476 8.994536,3.47075 3.493853,1.25653 6.932531,2.27104 10.439377,2.72661 7.176212,2.87874 15.82947,3.68704 23.2055,5.13535 10.22735,0.51585 18.59538,1.27995 27.16438,-0.52207 9.0043,-1.4965 16.91848,-4.04784 23.60505,-6.94285 7.55925,-3.27 13.75489,-6.57671 18.70197,-8.62008 6.09769,-3.70479 6.62068,-8.90729 6.81782,-8.85337 -0.94935,-0.25967 0.96465,4.92608 -6.27839,9.85553 -4.80092,2.24645 -10.8557,5.73722 -18.50299,9.26881 -6.72957,3.10577 -14.74865,5.85647 -23.91444,7.50786 -8.99299,1.95857 -17.69048,1.29951 -27.89313,0.81429 -7.17479,-1.33383 -15.911243,-2.11691 -23.566676,-5.11261 -3.555365,-0.49465 -6.957631,-1.53525 -10.321979,-2.80356 -2.874738,-1.08374 -5.74625,-2.34516 -8.463652,-3.46904 0.124557,-0.0523 -5.556788,2.33101 -5.432232,2.2787 -0.0988,0.032 -10.698149,3.46501 -10.796952,3.49707 -0.125998,-4.2e-4 -17.684089,-0.0741 -17.810087,-0.0746 -2.003633,-0.8049 -3.928738,-1.96122 -5.410229,-3.63981 -1.557697,-1.89451 -2.248942,-4.24367 -2.322468,-6.47723 -0.392157,-1.82555 -1.196155,-3.72643 -1.479183,-5.86397 -0.195858,-2.42008 0.787434,-4.76 2.366309,-6.52538 -1.389701,-0.0129 -2.616369,-0.72144 -3.160077,-1.92863 -0.476018,-1.24889 -0.535795,-2.37347 -0.845417,-3.19785 -3.2506,-6.68599 -3.327767,-16.26425 -3.968064,-21.19343 1.531359,-14.3149 6.67711,-21.07628 6.428425,-21.18799 z"
       style="fill:#000000;stroke:none;stroke-width:0.26458332000000001px;stroke-linecap:butt;stroke-linejoin:miter;stroke-opacity:1;opacity:0.7;filter:url(#filter2990)" />
    <path
       data-spirit-id="path923"
       d="m 77.530028,218.75312 c -2.210287,4.7617 -4.515013,9.49073 -7.226456,13.99093 3.107256,0.33 6.52403,0.11897 9.071427,-1.88988 8.74811,3.55333 17.655904,7.35595 27.197311,7.9375 7.69264,-0.0199 15.38838,0.0397 23.07908,-0.0299 3.36896,-0.18216 5.81606,-2.71397 8.68789,-4.12786 -6.54637,1.10368 -13.28558,2.4812 -19.89099,0.99547 -7.72981,-1.26191 -15.42833,-2.90481 -22.820315,-5.53118 -2.640792,-2.52072 -5.742235,-4.68085 -7.559524,-7.9375 -0.461667,-2.59918 -0.152385,-5.22511 -0.05079,-7.7986 -0.0038,-1.17946 1.824859,-4.32952 -0.187008,-2.54623 -3.433541,2.31241 -6.867082,4.62482 -10.300623,6.93723 z"
       style="fill:url(#radialGradient2648);stroke:#000000;stroke-width:0;stroke-linecap:butt;stroke-linejoin:miter;stroke-opacity:1;stroke-miterlimit:4;stroke-dasharray:none;fill-opacity:1;opacity:1;filter:url(#filter2638)" />
  </g>
</svg>
