<?xml version="1.0" encoding="UTF-8" standalone="no"?>
<svg
   xmlns:dc="http://purl.org/dc/elements/1.1/"
   xmlns:cc="http://creativecommons.org/ns#"
   xmlns:rdf="http://www.w3.org/1999/02/22-rdf-syntax-ns#"
   xmlns:svg="http://www.w3.org/2000/svg"
   xmlns="http://www.w3.org/2000/svg"
   xmlns:xlink="http://www.w3.org/1999/xlink"
   id="svg8"
   version="1.1"
   viewBox="0 0 210 210"
   height="210mm"
   width="210mm">
  <defs
     id="defs2" />
  <metadata
     id="metadata5">
    <rdf:RDF>
      <cc:Work
         rdf:about="">
        <dc:format>image/svg+xml</dc:format>
        <dc:type
           rdf:resource="http://purl.org/dc/dcmitype/StillImage" />
        <dc:title></dc:title>
      </cc:Work>
    </rdf:RDF>
  </metadata>
  <g
     transform="translate(0,-87)"
     data-spirit-id="layer1">
    <path
       data-spirit-id="path919"
       d="m 127.00546,172.43145 c 1.58085,0.62282 3.06517,1.8687 1.65535,3.58165 -0.96675,1.78805 -2.97845,2.73947 -4.46166,4.08255 -2.2586,1.67862 -4.40883,3.50555 -6.16129,5.72024 -2.69481,3.15404 -5.36125,6.3442 -7.85246,9.65946 -2.16384,3.0256 -3.46774,6.52725 -4.62832,10.0307 -1.02088,1.48043 -1.55021,3.64263 -3.25089,4.42423 -1.64109,0.50299 -1.57662,-3.04979 -2.16647,-0.72762 -0.317805,1.71114 2.10585,2.50218 3.44108,3.21958 2.53553,0.64398 5.21003,-0.6532 6.78713,-2.63988 2.42014,-2.23783 4.69607,-4.61987 7.20385,-6.76204 1.40105,-1.17376 4.42238,-3.26057 4.42238,-3.26057 3.26803,0.53382 7.09959,-3.96001 6.31899,-11.11859 0.15669,-0.96347 0.40472,-1.85084 0.9454,-2.68473 0.89792,-1.82108 1.965,-3.57237 2.74987,-5.44009 0.31744,-1.52295 0.75223,-3.45103 0.13182,-4.8502 -0.15498,-1.09069 -1.44136,-2.04765 -2.65408,-2.76491 -0.74889,-0.42756 -1.6417,-0.45091 -2.4807,-0.46978 z"
       style="fill:#690b14;fill-opacity:0.84500002;stroke:none;stroke-width:0;stroke-linecap:butt;stroke-linejoin:miter;stroke-miterlimit:4;stroke-dasharray:none;stroke-opacity:1" />
    <path
       data-spirit-id="path922"
       d="M 121.99416,199.75975 Z"
       style="fill:none;stroke:#000000;stroke-width:0.26458332px;stroke-linecap:butt;stroke-linejoin:miter;stroke-opacity:1" />
    <path
       data-spirit-id="path924"
       d="m 121.99416,199.75975 39.08816,35.48003 6.08039,-6.88219 -38.35318,-35.94775 c -0.26583,-0.15062 -0.54096,-4.10711 -0.49638,-3.76868"
       style="fill:#690b14;fill-opacity:0.84500002;stroke:none;stroke-width:0.26499999;stroke-linecap:butt;stroke-linejoin:miter;stroke-miterlimit:4;stroke-dasharray:none;stroke-opacity:1" />
    <path
       data-spirit-id="path926"
       d="m 118.87351,160.5506 c 1.72728,0.75739 2.77282,2.88174 1.46054,4.48374 -1.73138,2.15768 -4.76626,2.56807 -6.60971,4.61216 -2.35236,2.14596 -4.79778,4.20644 -7.0918,6.40598 -3.12597,4.2041 -6.34728,8.34873 -9.413675,12.59 -2.28029,4.5189 -4.64977,8.9957 -6.78806,13.57999 -1.96711,1.20652 -2.64468,-2.635 -2.91158,-2.7449 -0.32714,2.92281 0.9094,5.86722 2.75513,8.08167 1.41277,1.59054 4.7173,2.60314 5.8262,0.20398 2.32916,-3.18554 4.415055,-6.58666 5.797005,-10.29433 1.64173,-3.91518 3.63515,-7.71253 6.31449,-11.02048 2.5049,-4.02209 6.31749,-6.9253 9.80092,-10.03912 1.13729,-0.9395 2.27459,-1.87901 3.41188,-2.81851 1.9471,-3.21531 2.89161,-7.41452 1.37556,-10.98279 -0.81898,-1.40742 -2.17934,-2.62056 -3.9269,-2.05739 z"
       style="fill:#690b14;fill-opacity:0.84500002;stroke:#000000;stroke-width:0;stroke-linecap:butt;stroke-linejoin:miter;stroke-miterlimit:4;stroke-dasharray:none;stroke-opacity:1" />
    <path
       style="fill:#690b14;fill-opacity:0.84500002;stroke:#000000;stroke-width:0;stroke-linecap:butt;stroke-linejoin:miter;stroke-miterlimit:4;stroke-dasharray:none;stroke-opacity:1"
       d="m 109.33191,147.77165 c 1.91278,0.82378 3.07062,3.13435 1.6174,4.87679 -1.91733,2.34684 -5.27815,2.7932 -7.31959,5.01648 -2.605,2.33408 -5.313055,4.57518 -7.853455,6.96755 -3.4617,4.57264 -7.02898,9.08059 -10.4247,13.69367 -2.52519,4.91504 -5.14915,9.78429 -7.517095,14.77045 -2.178376,1.31229 -2.928717,-2.86599 -3.224281,-2.98552 -0.362275,3.17903 1.007069,6.38155 3.051029,8.79013 1.5645,1.72997 5.223937,2.83133 6.451937,0.22186 2.5793,-3.46479 4.88922,-7.16407 6.41959,-11.19677 1.81805,-4.25838 4.02557,-8.38863 6.99266,-11.98656 2.773935,-4.37468 6.995985,-7.53239 10.853545,-10.91917 1.25943,-1.02186 2.51887,-2.04374 3.77831,-3.0656 2.15622,-3.49717 3.20217,-8.0645 1.5233,-11.94557 -0.90694,-1.53079 -2.4134,-2.85028 -4.34865,-2.23774 z"
       data-spirit-id="path929" />
    <path
       data-spirit-id="path880"
       d="m 74.409737,190.04425 c -1.328637,8.65015 1.64626,12.96364 2.213213,18.74021 0.171861,7.11615 -1.371048,10.60681 -4.168326,16.1123 -3.615774,6.90781 -5.642846,9.18253 -2.970321,16.43008 1.153024,2.29652 4.114534,3.9238 6.672974,4.66546 22.436178,3.08073 0.792902,-27.33967 2.521402,-37.61782 -0.564335,-7.21067 5.983626,-6.75999 7.575946,-12.92695 -4.39494,2.34846 -10.56752,0.5258 -11.844888,-5.40328 z"
       style="opacity:1;fill:#ffff00;fill-opacity:1;stroke:#ffda00;stroke-width:1.36500001;stroke-linecap:butt;stroke-linejoin:miter;stroke-miterlimit:4;stroke-dasharray:none;stroke-opacity:1" />
    <path
       data-spirit-id="path882"
       d="m 87.519225,199.47757 c -0.74459,3.3915 1.51091,7.9498 2.3912,11.73014 -0.44134,6.88965 0.57171,13.79448 0.29893,20.68189 -0.71211,3.936 -1.49882,7.88848 -2.74782,11.69626 -7.381987,13.3497 -19.918878,20.76874 -11.994391,36.66513 3.940193,5.8174 8.991291,9.35065 15.690031,9.44134 17.988965,-5.79349 22.256665,-20.92473 11.183495,-33.68021 -3.410875,-4.19051 -6.437635,-8.81346 -8.372205,-13.87173 -1.74275,-6.18087 -1.07504,-12.68394 -1.43744,-19.02631 -0.0588,-5.23152 1.16082,-12.28832 4.57179,-16.55357 -2.58256,1.47476 -7.77788,-1.72976 -9.58359,-7.08294 z"
       style="fill:#ffff00;fill-opacity:1;stroke:#ffda00;stroke-width:1.56500006;stroke-linecap:butt;stroke-linejoin:miter;stroke-miterlimit:4;stroke-dasharray:none;stroke-opacity:1" />
    <path
       data-spirit-id="path933"
       d="m 97.923325,136.99027 c 1.91278,0.82378 3.070625,3.13435 1.6174,4.87679 -5.69011,3.67534 -10.43391,7.54183 -15.17304,11.98403 -3.461689,4.57264 -7.028971,9.08059 -10.424691,13.69367 -2.52519,4.91504 -5.14915,9.78429 -7.517095,14.77045 -2.178376,1.31229 -2.928717,-2.86599 -3.224281,-2.98552 -0.362275,3.17903 1.007069,6.38155 3.051029,8.79013 1.5645,1.72997 6.830336,2.35886 8.058336,-0.25061 2.464738,-3.23567 3.281362,-6.68868 4.813191,-10.7243 1.818052,-4.25838 4.025561,-8.38863 6.992651,-11.98656 2.77393,-4.37468 6.99598,-7.53239 10.85354,-10.91917 1.25943,-1.02186 2.51887,-2.04374 3.778315,-3.0656 2.7913,-3.15846 7.70633,-4.71347 4.12918,-9.60696 -0.90694,-1.53079 -5.019285,-5.18889 -6.954535,-4.57635 z"
       style="fill:#690b14;fill-opacity:0.84500002;stroke:#000000;stroke-width:0;stroke-linecap:butt;stroke-linejoin:miter;stroke-miterlimit:4;stroke-dasharray:none;stroke-opacity:1" />
    <path
       style="fill:#690b14;fill-opacity:0.84500002;stroke:#000000;stroke-width:0;stroke-linecap:butt;stroke-linejoin:miter;stroke-miterlimit:4;stroke-dasharray:none;stroke-opacity:1"
       d="m 86.414515,129.64808 c 1.78792,0.75903 2.87017,2.88799 1.51181,4.49346 -5.318665,3.38645 -9.752807,6.94901 -14.182579,11.04203 -3.235718,4.21322 -6.570137,8.36683 -9.744193,12.6173 -2.360352,4.52869 -4.813028,9.0152 -7.026399,13.60942 -2.036177,1.20915 -2.737537,-2.6407 -3.013808,-2.75084 -0.338627,2.92914 0.524647,7.54668 2.851865,8.0992 1.462374,1.59399 6.250835,2.17343 7.398674,-0.23091 2.303846,-2.98134 3.200798,-6.16293 4.632633,-9.88133 1.699374,-3.92366 3.762783,-7.72926 6.536189,-11.04436 2.592854,-4.03082 6.539296,-6.94032 10.145048,-10.06089 1.17721,-0.94153 2.35445,-1.88309 3.53168,-2.82462 2.60908,-2.9102 7.20328,-4.34299 3.85963,-8.85183 -0.84774,-1.41046 -4.69163,-4.78102 -6.50055,-4.21663 z"
       data-spirit-id="path937" />
    <path
       data-spirit-id="path941"
       d="m 74.308476,126.96011 c 1.401603,0.57522 2.25001,2.18861 1.185152,3.40528 -4.169457,2.56636 -7.645511,5.26617 -11.118138,8.36799 -2.536574,3.1929 -5.150523,6.34064 -7.638758,9.56177 -1.850349,3.43198 -3.773074,6.83199 -5.5082,10.31363 -1.596219,0.91633 -2.146036,-2.0012 -2.362612,-2.08467 -0.600605,5.93949 5.5445,9.39784 8.035697,5.96283 1.806052,-2.25935 2.509199,-4.67046 3.631656,-7.48837 1.332189,-2.97347 2.949756,-5.85747 5.12391,-8.36975 2.032614,-3.05468 5.126346,-5.25959 7.953,-7.62445 0.92285,-0.71352 1.845722,-1.42706 2.768587,-2.14058 6.237285,-2.49303 3.173485,-11.04063 -2.070294,-9.90368 z"
       style="fill:#690b14;fill-opacity:0.84500002;stroke:#000000;stroke-width:0;stroke-linecap:butt;stroke-linejoin:miter;stroke-miterlimit:4;stroke-dasharray:none;stroke-opacity:1" />
  </g>
</svg>
