<?xml version="1.0" encoding="UTF-8" standalone="no"?>
<!-- Created with Inkscape (http://www.inkscape.org/) -->

<svg
   xmlns:dc="http://purl.org/dc/elements/1.1/"
   xmlns:cc="http://creativecommons.org/ns#"
   xmlns:rdf="http://www.w3.org/1999/02/22-rdf-syntax-ns#"
   xmlns:svg="http://www.w3.org/2000/svg"
   xmlns="http://www.w3.org/2000/svg"
   xmlns:sodipodi="http://sodipodi.sourceforge.net/DTD/sodipodi-0.dtd"
   xmlns:inkscape="http://www.inkscape.org/namespaces/inkscape"
   width="210mm"
   height="297mm"
   viewBox="0 0 210 297"
   version="1.1"
   id="svg6360"
   inkscape:version="0.92.4 (5da689c313, 2019-01-14)"
   sodipodi:docname="whikybottle_plainsvg.svg">
  <defs
     id="defs6354">
    <inkscape:path-effect
       effect="skeletal"
       id="path-effect7101"
       is_visible="true"
       pattern="M 0,5 C 0,2.24 2.24,0 5,0 7.76,0 10,2.24 10,5 10,7.76 7.76,10 5,10 2.24,10 0,7.76 0,5 Z"
       copytype="single_stretched"
       prop_scale="0.26458333"
       scale_y_rel="false"
       spacing="0"
       normal_offset="0"
       tang_offset="0"
       prop_units="false"
       vertical_pattern="false"
       fuse_tolerance="0" />
    <inkscape:path-effect
       effect="skeletal"
       id="path-effect7089"
       is_visible="true"
       pattern="M 0,5 C 0,2.24 2.24,0 5,0 7.76,0 10,2.24 10,5 10,7.76 7.76,10 5,10 2.24,10 0,7.76 0,5 Z"
       copytype="single_stretched"
       prop_scale="0.26458333"
       scale_y_rel="false"
       spacing="0"
       normal_offset="0"
       tang_offset="0"
       prop_units="false"
       vertical_pattern="false"
       fuse_tolerance="0" />
    <inkscape:path-effect
       effect="skeletal"
       id="path-effect7081"
       is_visible="true"
       pattern="M 0,5 C 0,2.24 2.24,0 5,0 7.76,0 10,2.24 10,5 10,7.76 7.76,10 5,10 2.24,10 0,7.76 0,5 Z"
       copytype="single_stretched"
       prop_scale="0.26458333"
       scale_y_rel="false"
       spacing="0"
       normal_offset="0"
       tang_offset="0"
       prop_units="false"
       vertical_pattern="false"
       fuse_tolerance="0" />
    <inkscape:path-effect
       effect="skeletal"
       id="path-effect7077"
       is_visible="true"
       pattern="M 0,5 C 0,2.24 2.24,0 5,0 7.76,0 10,2.24 10,5 10,7.76 7.76,10 5,10 2.24,10 0,7.76 0,5 Z"
       copytype="single_stretched"
       prop_scale="0.26458333"
       scale_y_rel="false"
       spacing="0"
       normal_offset="0"
       tang_offset="0"
       prop_units="false"
       vertical_pattern="false"
       fuse_tolerance="0" />
    <inkscape:path-effect
       effect="skeletal"
       id="path-effect7073"
       is_visible="true"
       pattern="M 0,5 C 0,2.24 2.24,0 5,0 7.76,0 10,2.24 10,5 10,7.76 7.76,10 5,10 2.24,10 0,7.76 0,5 Z"
       copytype="single_stretched"
       prop_scale="0.26458333"
       scale_y_rel="false"
       spacing="0"
       normal_offset="0"
       tang_offset="0"
       prop_units="false"
       vertical_pattern="false"
       fuse_tolerance="0" />
    <inkscape:path-effect
       effect="skeletal"
       id="path-effect7069"
       is_visible="true"
       pattern="M 0,5 C 0,2.24 2.24,0 5,0 7.76,0 10,2.24 10,5 10,7.76 7.76,10 5,10 2.24,10 0,7.76 0,5 Z"
       copytype="single_stretched"
       prop_scale="0.26458333"
       scale_y_rel="false"
       spacing="0"
       normal_offset="0"
       tang_offset="0"
       prop_units="false"
       vertical_pattern="false"
       fuse_tolerance="0" />
    <inkscape:path-effect
       effect="skeletal"
       id="path-effect7046"
       is_visible="true"
       pattern="M 0,5 C 0,2.24 2.24,0 5,0 7.76,0 10,2.24 10,5 10,7.76 7.76,10 5,10 2.24,10 0,7.76 0,5 Z"
       copytype="single_stretched"
       prop_scale="0.26458333"
       scale_y_rel="false"
       spacing="0"
       normal_offset="0"
       tang_offset="0"
       prop_units="false"
       vertical_pattern="false"
       fuse_tolerance="0" />
    <inkscape:path-effect
       effect="skeletal"
       id="path-effect7042"
       is_visible="true"
       pattern="M 0,5 C 0,2.24 2.24,0 5,0 7.76,0 10,2.24 10,5 10,7.76 7.76,10 5,10 2.24,10 0,7.76 0,5 Z"
       copytype="single_stretched"
       prop_scale="0.26458333"
       scale_y_rel="false"
       spacing="0"
       normal_offset="0"
       tang_offset="0"
       prop_units="false"
       vertical_pattern="false"
       fuse_tolerance="0" />
    <inkscape:path-effect
       effect="skeletal"
       id="path-effect7034"
       is_visible="true"
       pattern="M 0,5 C 0,2.24 2.24,0 5,0 7.76,0 10,2.24 10,5 10,7.76 7.76,10 5,10 2.24,10 0,7.76 0,5 Z"
       copytype="single_stretched"
       prop_scale="0.26458333"
       scale_y_rel="false"
       spacing="0"
       normal_offset="0"
       tang_offset="0"
       prop_units="false"
       vertical_pattern="false"
       fuse_tolerance="0" />
    <inkscape:path-effect
       effect="skeletal"
       id="path-effect7030"
       is_visible="true"
       pattern="M 0,5 C 0,2.24 2.24,0 5,0 7.76,0 10,2.24 10,5 10,7.76 7.76,10 5,10 2.24,10 0,7.76 0,5 Z"
       copytype="single_stretched"
       prop_scale="0.26458333"
       scale_y_rel="false"
       spacing="0"
       normal_offset="0"
       tang_offset="0"
       prop_units="false"
       vertical_pattern="false"
       fuse_tolerance="0" />
    <inkscape:path-effect
       effect="skeletal"
       id="path-effect7026"
       is_visible="true"
       pattern="M 0,5 C 0,2.24 2.24,0 5,0 7.76,0 10,2.24 10,5 10,7.76 7.76,10 5,10 2.24,10 0,7.76 0,5 Z"
       copytype="single_stretched"
       prop_scale="0.26458333"
       scale_y_rel="false"
       spacing="0"
       normal_offset="0"
       tang_offset="0"
       prop_units="false"
       vertical_pattern="false"
       fuse_tolerance="0" />
    <inkscape:path-effect
       effect="skeletal"
       id="path-effect7022"
       is_visible="true"
       pattern="M 0,5 C 0,2.24 2.24,0 5,0 7.76,0 10,2.24 10,5 10,7.76 7.76,10 5,10 2.24,10 0,7.76 0,5 Z"
       copytype="single_stretched"
       prop_scale="0.26458333"
       scale_y_rel="false"
       spacing="0"
       normal_offset="0"
       tang_offset="0"
       prop_units="false"
       vertical_pattern="false"
       fuse_tolerance="0" />
    <inkscape:path-effect
       effect="skeletal"
       id="path-effect7018"
       is_visible="true"
       pattern="M 0,5 C 0,2.24 2.24,0 5,0 7.76,0 10,2.24 10,5 10,7.76 7.76,10 5,10 2.24,10 0,7.76 0,5 Z"
       copytype="single_stretched"
       prop_scale="0.26458333"
       scale_y_rel="false"
       spacing="0"
       normal_offset="0"
       tang_offset="0"
       prop_units="false"
       vertical_pattern="false"
       fuse_tolerance="0" />
    <inkscape:path-effect
       effect="skeletal"
       id="path-effect7014"
       is_visible="true"
       pattern="M 0,5 C 0,2.24 2.24,0 5,0 7.76,0 10,2.24 10,5 10,7.76 7.76,10 5,10 2.24,10 0,7.76 0,5 Z"
       copytype="single_stretched"
       prop_scale="0.19503925"
       scale_y_rel="false"
       spacing="0"
       normal_offset="0"
       tang_offset="0"
       prop_units="false"
       vertical_pattern="false"
       fuse_tolerance="0" />
    <inkscape:path-effect
       effect="skeletal"
       id="path-effect7010"
       is_visible="true"
       pattern="M 0,5 C 0,2.24 2.24,0 5,0 7.76,0 10,2.24 10,5 10,7.76 7.76,10 5,10 2.24,10 0,7.76 0,5 Z"
       copytype="single_stretched"
       prop_scale="0.15881968"
       scale_y_rel="false"
       spacing="0"
       normal_offset="0"
       tang_offset="0"
       prop_units="false"
       vertical_pattern="false"
       fuse_tolerance="0" />
  </defs>
  <sodipodi:namedview
     id="base"
     pagecolor="#ffffff"
     bordercolor="#666666"
     borderopacity="1.0"
     inkscape:pageopacity="0.0"
     inkscape:pageshadow="2"
     inkscape:zoom="0.35"
     inkscape:cx="458.78794"
     inkscape:cy="567.3832"
     inkscape:document-units="mm"
     inkscape:current-layer="layer1"
     showgrid="false"
     inkscape:window-width="1280"
     inkscape:window-height="709"
     inkscape:window-x="0"
     inkscape:window-y="1"
     inkscape:window-maximized="1" />
  <metadata
     id="metadata6357">
    <rdf:RDF>
      <cc:Work
         rdf:about="">
        <dc:format>image/svg+xml</dc:format>
        <dc:type
           rdf:resource="http://purl.org/dc/dcmitype/StillImage" />
        <dc:title></dc:title>
      </cc:Work>
    </rdf:RDF>
  </metadata>
  <g
     inkscape:label="Layer 1"
     inkscape:groupmode="layer"
     id="layer1">
    <path
       style="fill:#000000;stroke:none;stroke-width:0.26458332px;stroke-linecap:butt;stroke-linejoin:miter;stroke-opacity:1"
       d="m 90.337099,43.628487 c 0.430101,0.0846 -0.21388,4.795709 -0.304584,10.613748 -0.0907,5.818039 0.337505,10.571412 -0.09632,10.634182 -0.417062,0.06034 -1.586034,-4.644252 -1.490822,-10.659118 0.09524,-6.016414 1.452728,-10.675164 1.891726,-10.588812 z"
       id="path7008"
       inkscape:connector-curvature="0"
       inkscape:path-effect="#path-effect7010"
       inkscape:original-d="m 90.337099,43.628487 c -1.347935,6.852679 -1.545734,13.335638 -0.400904,21.247927"
       sodipodi:nodetypes="cc" />
    <path
       style="fill:#000000;stroke:none;stroke-width:0.26458332px;stroke-linecap:butt;stroke-linejoin:miter;stroke-opacity:1"
       d="m 116.93042,43.628487 c 0.47338,-0.03619 1.46263,4.819403 1.58678,10.950527 0.12458,6.152214 -0.85958,11.038691 -1.45315,10.965581 -0.46825,-0.05768 -0.37211,-4.95833 -0.49754,-10.925336 -0.12639,-6.012983 -0.23337,-10.945108 0.36391,-10.990772 z"
       id="path7012"
       inkscape:connector-curvature="0"
       inkscape:path-effect="#path-effect7014"
       inkscape:original-d="m 116.93042,43.628487 c 0.58979,7.714305 0.95357,15.259101 0.13363,21.916101"
       sodipodi:nodetypes="cc" />
    <path
       style="fill:#000000;stroke:none;stroke-width:0.26458332px;stroke-linecap:butt;stroke-linejoin:miter;stroke-opacity:1"
       d="m 89.802561,64.609146 c 0.137909,-0.05304 0.504969,0.50787 1.075053,1.641247 0.68429,3.286071 2.463233,15.281732 -0.217025,27.643404 -0.469158,2.125671 -1.093115,4.281804 -1.89129,6.434183 -1.398975,3.77252 -3.198978,7.17305 -5.261992,10.16064 -2.591076,3.73767 -6.555289,7.95442 -8.595744,10.30176 -1.466529,1.69182 -2.513399,3.0301 -3.399325,4.42239 -1.838552,2.88611 -2.299993,4.92608 -2.5567,4.87741 -0.167941,-0.0318 -0.324734,-2.19637 1.315726,-5.56826 0.759061,-1.5595 1.766469,-3.12807 3.140086,-4.94535 2.289601,-3.03927 5.345321,-6.41564 8.01085,-10.49306 1.883513,-2.86884 3.542045,-6.10052 4.866397,-9.675049 0.75553,-2.03923 1.36142,-4.080134 1.835297,-6.092731 2.639846,-11.016015 1.908635,-23.939317 1.939962,-26.873329 -0.29674,-1.119736 -0.398994,-1.780294 -0.261295,-1.833255 z"
       id="path7016"
       inkscape:connector-curvature="0"
       inkscape:path-effect="#path-effect7018"
       inkscape:original-d="m 89.802561,64.609146 0.668174,1.737251 C 94.920157,112.42812 71.843761,114.85586 68.955538,130.09018"
       sodipodi:nodetypes="ccc" />
    <path
       style="fill:#000000;stroke:none;stroke-width:0.26458332px;stroke-linecap:butt;stroke-linejoin:miter;stroke-opacity:1"
       d="m 116.98363,64.922619 c 0.14633,0.05853 0.0201,0.780085 -0.32386,1.990678 0.1014,4.005735 -0.24397,15.500194 2.90378,27.474698 0.34242,1.336039 0.72789,2.686032 1.16078,4.043541 1.72157,5.398604 3.9234,10.074484 6.37314,14.096214 7.13552,7.99964 11.92258,13.78776 11.62127,14.19213 0,0 0,0 0,0 0,0 0,0 0,0 0,0 0,0 0,0 0,0 0,0 0,0 0,0 0,1e-5 0,1e-5 0,0 0,0 0,0 0,0 0,0 0,0 0,0 0,0 0,0 0,0 0,0 0,0 0,0 0,0 0,0 0,0 -1e-5,0 -1e-5,0 -0.001,0.002 -0.001,0.002 -0.001,0.002 0,-10e-6 2e-5,-10e-6 -0.002,0.002 0,0 0,1e-5 0,1e-5 0,0 0,0 0,0 0,0 0,0 0,0 0,0 0,0 0,0 0,0 0,0 0,0 0,0 0,0 0,0 0,0 0,0 0,0 0,0 0,0 0,0 0,0 0,0 0,0 0,0 0,0 0,0 0,0 0,0 0,0 -0.33386,0.37118 -5.71688,-4.77684 -13.46118,-12.77078 -2.7347,-4.10727 -5.18413,-9.00874 -7.01775,-14.672095 -0.46152,-1.425462 -0.86602,-2.843904 -1.21806,-4.247635 -3.14323,-12.851794 -1.95738,-24.353237 -1.22316,-28.321341 0.63476,-1.235512 1.04146,-1.847713 1.18804,-1.78908 z"
       id="path7020"
       inkscape:connector-curvature="0"
       inkscape:path-effect="#path-effect7022"
       inkscape:original-d="m 116.98363,64.922619 -0.75595,1.889879 c -3.4307,43.969952 22.48958,59.909232 22.48958,59.909232"
       sodipodi:nodetypes="ccc" />
    <path
       style="fill:#000000;stroke:none;stroke-width:0.26458332000000001px;stroke-linecap:butt;stroke-linejoin:miter;stroke-opacity:1"
       d="m 68.791666,128.80059 c 0.744936,-0.0279 2.481219,31.75759 3.913587,71.05916 0.719399,19.73898 1.232806,37.73129 1.480429,50.50009 -3.104193,4.61951 -6.161483,9.16833 -7.973745,11.84477 0,0 10e-7,10e-6 10e-7,10e-6 2.279139,2.96002 3.492296,4.81478 3.335683,4.93525 -0.156609,0.12047 -1.645966,-1.53801 -4.223843,-4.8921 0,0 -10e-7,0 -10e-7,0 1.61466,-2.81299 4.260201,-7.376 7.145303,-12.34571 -0.709409,-12.832 -1.539277,-30.77191 -2.290865,-50.382 -1.493213,-38.96024 -2.131578,-70.69162 -1.386549,-70.71947 z"
       id="path7024"
       inkscape:connector-curvature="0"
       inkscape:path-effect="#path-effect7026"
       inkscape:original-d="m 68.791666,128.80059 4.535715,121.33036 -7.559524,12.09524 3.77976,4.91368" />
    <path
       style="fill:#000000;stroke:none;stroke-width:0.26458332px;stroke-linecap:butt;stroke-linejoin:miter;stroke-opacity:1"
       d="m 138.71574,126.72355 c 0.74792,0.0436 -1.46584,47.18837 -4.89033,105.08608 -0.009,0.15817 -1.05344,17.51722 -1.06279,17.67539 0.19842,0.38243 6.1571,11.88418 6.35552,12.26661 -0.0408,0.11794 -2.22606,6.43157 -2.26686,6.54951 -19.78414,6.51195 -36.889875,6.57281 -49.129247,4.56843 -12.04967,-1.97331 -18.295594,-5.56903 -18.26891,-5.6352 0.105656,-0.262 6.659917,2.65273 18.359151,4.2785 11.992745,1.66656 28.429096,1.46493 47.479306,-4.77831 -0.0954,0.30207 1.60828,-5.09184 1.5129,-4.78977 0.2472,0.45322 -6.74288,-12.37709 -6.49568,-11.92387 -0.009,0.15942 1.01457,-17.92763 1.00571,-17.76822 3.36034,-58.3619 6.65342,-105.57279 7.40123,-105.52915 z"
       id="path7028"
       inkscape:connector-curvature="0"
       inkscape:path-effect="#path-effect7030"
       inkscape:original-d="m 138.71574,126.72355 -7.18003,123.02942 6.4256,12.09524 -1.88988,5.66964 c -23.42294,7.6933 -45.714603,8.14637 -66.618305,-0.28348"
       sodipodi:nodetypes="ccccc" />
    <path
       style="fill:#000000;stroke:none;stroke-width:0.26458332px;stroke-linecap:butt;stroke-linejoin:miter;stroke-opacity:1"
       d="m 68.149641,258.79693 c 0.153173,-0.38121 3.861873,0.90631 9.941975,2.61627 6.03399,1.697 14.546126,3.82437 23.992014,4.43648 0.68288,0.0443 1.36138,0.0801 2.03569,0.10759 0,0 0,0 0,0 9.26242,0.37899 16.87405,-1.0091 22.67309,-2.70556 5.60079,-1.63846 8.87374,-3.27137 9.04279,-2.96265 0.13356,0.24393 -2.80374,2.52043 -8.46314,4.68126 -5.79187,2.2114 -13.76487,3.98958 -23.35665,3.62617 0,0 -1e-5,0 -1e-5,0 -0.69733,-0.0265 -1.39872,-0.0629 -2.10414,-0.10941 -9.788651,-0.64495 -18.409613,-3.10831 -24.395214,-5.29007 -6.022808,-2.19532 -9.48431,-4.10664 -9.366405,-4.40008 z"
       id="path7032"
       inkscape:connector-curvature="0"
       inkscape:path-effect="#path-effect7034"
       inkscape:original-d="m 68.149641,258.79693 c 24.915039,10.01104 48.303699,12.10479 67.685549,1.49213"
       sodipodi:nodetypes="cc" />
    <path
       style="fill:#241f1c;stroke:none;stroke-width:0.26458332000000001px;stroke-linecap:butt;stroke-linejoin:miter;stroke-opacity:1"
       d="m 84.590806,195.43758 c 0.0808,0.075 -0.448698,0.79335 -1.701661,2.11403 -1.29802,-0.67622 -3.677453,-1.92526 -4.975472,-2.60148 -0.952882,-2.71877 -2.169026,-6.24151 -3.573261,-10.33706 -0.71014,-1.74301 -1.462316,-3.60175 -2.254628,-5.57156 -0.193047,-5.9164 -0.384855,-12.71016 -0.5721,-20.2529 1.257712,-2.18402 2.583933,-4.55523 2.290185,-6.77819 1.006817,-3.09482 2.178184,-6.52511 4.117335,-9.6193 1.062281,-1.27552 2.522529,-2.57333 4.538574,-3.26157 0.0119,0.0162 1.668917,2.27393 1.680813,2.29013 5.647687,-3.10778 12.264691,-5.32276 19.203539,-5.29525 0.15266,6.1e-4 0.30529,0.002 0.4579,0.005 6.21369,0.29017 12.08751,2.42564 17.1388,5.38021 0,0 10e-6,-10e-6 10e-6,-10e-6 -0.01,0.0213 0.92854,-2.07847 0.91902,-2.05713 0.97658,0.0684 2.05482,0.10704 3.20163,0.31605 1.06983,0.38355 2.02953,1.01381 2.80033,1.829 3.02866,3.38329 3.78865,7.95944 4.4195,11.61389 0.0536,1.0965 0.13596,2.08531 0.57697,2.76684 0,0 0,1e-5 0,1e-5 0.3021,0.55972 0.87841,1.22438 1.34148,2.20415 -0.16982,8.22705 -0.34537,15.64204 -0.51951,21.97861 -0.72084,1.28229 -1.41556,2.51291 -2.08375,3.69119 -1.29424,4.43055 -2.42727,8.28646 -3.30655,11.23598 -2.36239,1.12203 -4.24379,2.01489 -5.51833,2.6092 -1.33409,-1.32399 -1.91148,-2.04699 -1.83217,-2.12629 0.0793,-0.0793 0.79948,0.49528 1.90961,1.61549 1.34853,-0.79828 3.28938,-1.9379 4.63791,-2.73618 0.67662,-2.98967 1.56803,-6.86648 2.57336,-11.21466 0.61516,-1.13173 1.25708,-2.30704 1.92532,-3.52509 -0.0191,-6.14447 -0.0143,-13.24833 0.015,-21.05179 -0.15857,-0.34356 -0.6591,-0.7439 -1.1377,-1.4499 0,0 -1e-5,-1e-5 -1e-5,-1e-5 -0.73194,-1.22006 -0.94785,-2.54252 -0.9529,-3.73533 -0.80222,-3.61418 -1.43226,-7.7401 -3.88352,-10.13539 -0.49461,-0.51894 -1.12683,-0.92503 -1.81492,-1.16197 -0.38267,-0.33091 -0.90267,-0.5515 -1.51988,-0.86886 -0.0114,0.0183 -1.20771,1.93361 -1.21913,1.95192 0,0 0,0 0,0 -5.33474,-2.59498 -11.43251,-4.41993 -17.74562,-4.48519 -0.15245,-0.006 -0.30499,-0.0107 -0.45763,-0.0145 -6.931468,-0.17221 -13.694335,1.79387 -19.564709,4.58971 0.01314,0.0165 -1.806828,-2.26994 -1.793692,-2.25345 -0.764118,0.40158 -1.347174,1.50621 -1.883069,2.67338 -1.741936,2.53257 -2.850398,5.59955 -3.893574,8.50001 0.256454,2.84897 -1.153832,5.27519 -2.520665,7.11981 0.110022,7.12205 0.187129,13.59565 0.229707,19.303 0.71522,1.89323 1.389756,3.69045 2.021684,5.38648 1.11357,3.98143 2.089739,7.49431 2.841209,10.2427 1.679644,1.1325 3.021216,2.02128 4.111692,2.74392 1.017563,-1.12443 1.69201,-1.70281 1.772843,-1.62775 z"
       id="path7040"
       inkscape:connector-curvature="0"
       inkscape:path-effect="#path-effect7042"
       inkscape:original-d="m 84.590806,195.43758 -1.737252,1.87089 -4.543582,-2.6727 -3.207235,-10.28988 -2.138156,-5.47902 -0.400904,-19.77795 c 1.376648,-2.11312 2.707637,-4.16433 2.405426,-6.949 3.043473,-8.90074 5.232312,-11.24929 7.216276,-12.02713 l 1.737252,2.27179 c 14.198152,-7.27716 26.285529,-5.8767 37.284099,0 l 1.06908,-2.00453 c 3.14926,0.76288 6.35979,0.4841 8.81989,12.96258 0.088,3.43333 1.28365,3.54353 2.00453,5.07812 l -0.26727,21.5152 -2.00453,3.60814 -2.93996,11.22532 -5.07812,2.67269 -1.87089,-1.87089"
       sodipodi:nodetypes="cccccccc" />
    <path
       style="fill:#241f1c;stroke:none;stroke-width:0.26458332000000001px;stroke-linecap:butt;stroke-linejoin:miter;stroke-opacity:1"
       d="m 120.87265,195.63803 c 0.12589,0.28972 -1.45538,1.39229 -4.2813,2.79454 -2.69054,1.33507 -7.05637,3.19866 -11.97252,3.74666 0,0 0,0 0,0 -0.64923,0.0664 -1.30651,0.10709 -1.97089,0.12141 -5.580233,0.12026 -10.352292,-1.6361 -13.499745,-3.32081 -3.175296,-1.69963 -4.726117,-3.27783 -4.557395,-3.54225 0.21854,-0.3425 2.131231,0.64639 5.331398,1.83057 3.175117,1.17492 7.674731,2.53383 12.662752,2.40121 0.59805,-0.0159 1.18817,-0.0528 1.77059,-0.11017 0,0 10e-6,0 10e-6,0 4.36108,-0.38566 8.82642,-1.90792 11.56173,-2.78486 2.9639,-0.95023 4.80921,-1.47268 4.95537,-1.1363 z"
       id="path7044"
       inkscape:connector-curvature="0"
       inkscape:path-effect="#path-effect7046"
       inkscape:original-d="m 120.87265,195.63803 c -10.46993,4.54946 -21.130686,9.46717 -36.281846,-0.20045"
       sodipodi:nodetypes="cc" />
    <path
       style="fill:#000000;stroke:none;stroke-width:0.26458332px;stroke-linecap:butt;stroke-linejoin:miter;stroke-opacity:1"
       d="m 89.802559,64.609146 c -0.13932,-0.64919 5.770729,-2.837044 13.645501,-2.818785 7.88099,0.01827 13.74425,2.393317 13.53557,3.132259 -0.19846,0.702764 -6.14041,-0.482148 -13.53989,-0.488891 -7.399471,-0.0067 -13.487954,0.88941 -13.641181,0.175417 z"
       id="path7067"
       inkscape:connector-curvature="0"
       inkscape:path-effect="#path-effect7069"
       inkscape:original-d="m 89.802559,64.609146 c 8.469489,-1.817598 17.294561,-2.478487 27.181071,0.313473"
       sodipodi:nodetypes="cc" />
    <path
       style="fill:#225500;stroke:none;stroke-width:0.26458332000000001px;stroke-linecap:butt;stroke-linejoin:miter;stroke-opacity:1"
       d="m 89.134385,98.953279 c -0.150604,-0.651998 6.1909,-3.042459 14.652445,-3.107717 8.465,-0.06529 14.81034,2.370954 14.61358,3.107719 -0.18842,0.705524 -6.61253,-0.534819 -14.59178,-0.46457 -7.979261,0.07025 -14.509893,1.176083 -14.674245,0.464568 z"
       id="path7071"
       inkscape:connector-curvature="0"
       inkscape:path-effect="#path-effect7073"
       inkscape:original-d="m 89.134385,98.953279 c 9.011894,-2.081645 18.482135,-2.879909 29.266015,0"
       sodipodi:nodetypes="cc" />
    <path
       style="fill:#000000;stroke:none;stroke-width:0.26458332px;stroke-linecap:butt;stroke-linejoin:miter;stroke-opacity:1"
       d="m 90.337099,43.628487 c -0.151779,-0.668968 5.611975,-2.844761 13.307971,-2.887512 7.70056,-0.04278 13.46847,2.163218 13.28535,2.887513 -0.17899,0.707974 -6.03291,-0.28912 -13.26958,-0.242852 -7.236662,0.04627 -13.162165,0.955001 -13.323741,0.242851 z"
       id="path7075"
       inkscape:connector-curvature="0"
       inkscape:path-effect="#path-effect7077"
       inkscape:original-d="m 90.337099,43.628487 c 8.619972,-1.955745 17.439601,-2.314261 26.593321,0"
       sodipodi:nodetypes="cc" />
    <path
       style="fill:#241f1c;stroke:none;stroke-width:0.26458332000000001px;stroke-linecap:butt;stroke-linejoin:miter;stroke-opacity:1"
       d="m 130.96207,216.55187 c 0.0553,0.25525 -5.83639,2.13677 -15.91061,2.78403 -11.7523,0.75508 -22.561369,-0.28354 -40.169332,-2.22817 0,0 -6e-6,0 -6e-6,0 0.73198,3.98244 1.523537,8.25902 2.133861,12.50546 0.372729,2.59333 0.674661,5.1474 0.876966,7.68989 0.07869,1.64227 0.149111,3.34777 -0.122939,5.11679 0,0 -10e-7,1e-5 -10e-7,1e-5 -0.03003,0.39559 -0.161581,0.95616 -0.527524,1.59709 0,0 -5e-6,1e-5 -5e-6,1e-5 -0.210372,0.17067 -0.803982,0.0516 -1.663908,-0.48713 15.906432,3.20105 28.975358,3.29089 39.205248,2.29485 9.80356,-0.95452 15.55845,-2.58488 15.64372,-2.27861 0.0571,0.20494 -5.50611,2.46309 -15.34951,3.47903 -10.23467,1.05633 -23.418661,0.55537 -39.38205,-3.46279 -0.47122,-0.4113 -0.646551,-0.77274 -0.634848,-0.94759 0,0 0,-1e-5 0,-1e-5 0.04892,-0.004 0.04933,-0.22972 0.138453,-0.59665 0,0 2e-6,-1e-5 2e-6,-1e-5 0.226162,-1.41816 0.136108,-2.94409 0.06699,-4.59719 -0.03125,-2.66464 -0.153116,-5.35548 -0.338271,-8.10107 -0.303132,-4.495 -0.772688,-9.05889 -1.208569,-13.3238 0,0 5e-6,0 5e-6,0 18.650576,1.54456 28.560181,2.44568 40.978241,1.92862 10.17791,-0.42379 16.19566,-1.68847 16.26409,-1.37276 z"
       id="path7079"
       inkscape:connector-curvature="0"
       inkscape:path-effect="#path-effect7081"
       inkscape:original-d="m 130.96207,216.55187 c -18.64927,4.04219 -37.666359,1.8315 -56.661142,0 2.68681,18.97385 2.94463,27.5217 1.336348,26.99422 18.105675,4.10132 36.329164,5.13939 54.790254,0"
       sodipodi:nodetypes="cccc" />
    <path
       style="fill:#241f1c;stroke:none;stroke-width:0.26458332000000001px;stroke-linecap:butt;stroke-linejoin:miter;stroke-opacity:1"
       d="m 130.96207,216.55187 c 0.75139,0.18712 -0.3815,6.30687 -0.99291,13.80206 -0.12892,1.5805 -0.22241,3.05292 -0.29221,4.47137 -0.12426,2.69788 -0.16241,4.18825 -0.0107,5.99395 0.078,0.82138 0.11643,1.23226 0.25508,1.73847 0.227,0.61071 0.42202,0.85502 0.38142,1.04176 -0.0155,0.0715 -0.66951,0.41624 -1.32322,-0.526 -0.38644,-0.4788 -0.6959,-1.10619 -0.94969,-1.91644 -0.55926,-1.7345 -0.81618,-3.75806 -0.8521,-6.37109 -0.0241,-1.46352 0.0227,-3.01861 0.15522,-4.64681 0.63973,-7.86021 2.97679,-13.74972 3.62912,-13.58727 z"
       id="path7087"
       inkscape:connector-curvature="0"
       inkscape:path-effect="#path-effect7089"
       inkscape:original-d="m 130.96207,216.55187 c -3.28169,13.17809 -3.25781,26.48272 -0.65933,27.04761"
       sodipodi:nodetypes="cc" />
    <text
       xml:space="preserve"
       style="font-style:normal;font-variant:normal;font-weight:normal;font-stretch:normal;font-size:17.36773300000000120px;line-height:1.25;font-family:Trattatello;-inkscape-font-specification:Trattatello;letter-spacing:0px;word-spacing:0px;opacity:1;fill:#668000;fill-opacity:1;stroke:none;stroke-width:0.32564497;"
       x="72.777184"
       y="186.4014"
       id="text7093"
       transform="scale(1.0628279,0.94088612)"><tspan
         sodipodi:role="line"
         id="tspan7091"
         x="72.777184"
         y="186.4014"
         style="font-style:normal;font-variant:normal;font-weight:normal;font-stretch:normal;font-size:17.36773300000000120px;font-family:Trattatello;-inkscape-font-specification:Trattatello;fill:#668000;stroke-width:0.32564497;">Whisky</tspan></text>
  </g>
</svg>
